<svg width="397" height="115" viewBox="0 0 397 115" fill="none" xmlns="http://www.w3.org/2000/svg">
<path d="M132.496 36.7286H162.616V44.6486H141.916V54.5486H159.856V61.8686H141.916V79.5686H132.496V36.7286ZM175.922 43.7486H167.402V36.7286H175.922V43.7486ZM167.402 48.5486H175.922V79.5686H167.402V48.5486ZM236.91 60.7286C236.51 58.5686 235.79 56.9286 234.75 55.8086C233.75 54.6886 232.21 54.1286 230.13 54.1286C228.77 54.1286 227.63 54.3686 226.71 54.8486C225.83 55.2886 225.11 55.8486 224.55 56.5286C224.03 57.2086 223.65 57.9286 223.41 58.6886C223.21 59.4486 223.09 60.1286 223.05 60.7286H236.91ZM223.05 66.1286C223.17 68.8886 223.87 70.8886 225.15 72.1286C226.43 73.3686 228.27 73.9886 230.67 73.9886C232.39 73.9886 233.87 73.5686 235.11 72.7286C236.35 71.8486 237.11 70.9286 237.39 69.9686H244.89C243.69 73.6886 241.85 76.3486 239.37 77.9486C236.89 79.5486 233.89 80.3486 230.37 80.3486C227.93 80.3486 225.73 79.9686 223.77 79.2086C221.81 78.4086 220.15 77.2886 218.79 75.8486C217.43 74.4086 216.37 72.6886 215.61 70.6886C214.89 68.6886 214.53 66.4886 214.53 64.0886C214.53 61.7686 214.91 59.6086 215.67 57.6086C216.43 55.6086 217.51 53.8886 218.91 52.4486C220.31 50.9686 221.97 49.8086 223.89 48.9686C225.85 48.1286 228.01 47.7086 230.37 47.7086C233.01 47.7086 235.31 48.2286 237.27 49.2686C239.23 50.2686 240.83 51.6286 242.07 53.3486C243.35 55.0686 244.27 57.0286 244.83 59.2286C245.39 61.4286 245.59 63.7286 245.43 66.1286H223.05ZM260.803 71.6486H269.203C270.563 71.6486 271.883 71.4286 273.163 70.9886C274.443 70.5486 275.583 69.8286 276.583 68.8286C277.583 67.7886 278.383 66.4486 278.983 64.8086C279.583 63.1686 279.883 61.1686 279.883 58.8086C279.883 56.6486 279.663 54.7086 279.223 52.9886C278.823 51.2286 278.143 49.7286 277.183 48.4886C276.223 47.2486 274.943 46.3086 273.343 45.6686C271.783 44.9886 269.843 44.6486 267.523 44.6486H260.803V71.6486ZM251.383 36.7286H269.863C272.623 36.7286 275.183 37.1686 277.543 38.0486C279.943 38.9286 282.003 40.2486 283.723 42.0086C285.483 43.7686 286.843 45.9686 287.803 48.6086C288.803 51.2486 289.303 54.3486 289.303 57.9086C289.303 61.0286 288.903 63.9086 288.103 66.5486C287.303 69.1886 286.083 71.4686 284.443 73.3886C282.843 75.3086 280.823 76.8286 278.383 77.9486C275.983 79.0286 273.143 79.5686 269.863 79.5686H251.383V36.7286ZM294.595 58.0886C294.715 56.0886 295.215 54.4286 296.095 53.1086C296.975 51.7886 298.095 50.7286 299.455 49.9286C300.815 49.1286 302.335 48.5686 304.015 48.2486C305.735 47.8886 307.455 47.7086 309.175 47.7086C310.735 47.7086 312.315 47.8286 313.915 48.0686C315.515 48.2686 316.975 48.6886 318.295 49.3286C319.615 49.9686 320.695 50.8686 321.535 52.0286C322.375 53.1486 322.795 54.6486 322.795 56.5286V72.6686C322.795 74.0686 322.875 75.4086 323.035 76.6886C323.195 77.9686 323.475 78.9286 323.875 79.5686H315.235C315.075 79.0886 314.935 78.6086 314.815 78.1286C314.735 77.6086 314.675 77.0886 314.635 76.5686C313.275 77.9686 311.675 78.9486 309.835 79.5086C307.995 80.0686 306.115 80.3486 304.195 80.3486C302.715 80.3486 301.335 80.1686 300.055 79.8086C298.775 79.4486 297.655 78.8886 296.695 78.1286C295.735 77.3686 294.975 76.4086 294.415 75.2486C293.895 74.0886 293.635 72.7086 293.635 71.1086C293.635 69.3486 293.935 67.9086 294.535 66.7886C295.175 65.6286 295.975 64.7086 296.935 64.0286C297.935 63.3486 299.055 62.8486 300.295 62.5286C301.575 62.1686 302.855 61.8886 304.135 61.6886C305.415 61.4886 306.675 61.3286 307.915 61.2086C309.155 61.0886 310.255 60.9086 311.215 60.6686C312.175 60.4286 312.935 60.0886 313.495 59.6486C314.055 59.1686 314.315 58.4886 314.275 57.6086C314.275 56.6886 314.115 55.9686 313.795 55.4486C313.515 54.8886 313.115 54.4686 312.595 54.1886C312.115 53.8686 311.535 53.6686 310.855 53.5886C310.215 53.4686 309.515 53.4086 308.755 53.4086C307.075 53.4086 305.755 53.7686 304.795 54.4886C303.835 55.2086 303.275 56.4086 303.115 58.0886H294.595ZM314.275 64.3886C313.915 64.7086 313.455 64.9686 312.895 65.1686C312.375 65.3286 311.795 65.4686 311.155 65.5886C310.555 65.7086 309.915 65.8086 309.235 65.8886C308.555 65.9686 307.875 66.0686 307.195 66.1886C306.555 66.3086 305.915 66.4686 305.275 66.6686C304.675 66.8686 304.135 67.1486 303.655 67.5086C303.215 67.8286 302.855 68.2486 302.575 68.7686C302.295 69.2886 302.155 69.9486 302.155 70.7486C302.155 71.5086 302.295 72.1486 302.575 72.6686C302.855 73.1886 303.235 73.6086 303.715 73.9286C304.195 74.2086 304.755 74.4086 305.395 74.5286C306.035 74.6486 306.695 74.7086 307.375 74.7086C309.055 74.7086 310.355 74.4286 311.275 73.8686C312.195 73.3086 312.875 72.6486 313.315 71.8886C313.755 71.0886 314.015 70.2886 314.095 69.4886C314.215 68.6886 314.275 68.0486 314.275 67.5686V64.3886ZM338.169 43.7486H329.649V36.7286H338.169V43.7486ZM329.649 48.5486H338.169V79.5686H329.649V48.5486ZM345.117 36.7286H353.637V79.5686H345.117V36.7286ZM375.646 83.4086C374.726 85.9286 373.446 87.7286 371.806 88.8086C370.166 89.8886 367.886 90.4286 364.966 90.4286C364.086 90.4286 363.206 90.3886 362.326 90.3086C361.486 90.2686 360.626 90.2086 359.746 90.1286V83.1086C360.546 83.1886 361.366 83.2686 362.206 83.3486C363.046 83.4286 363.886 83.4486 364.726 83.4086C365.846 83.2886 366.666 82.8486 367.186 82.0886C367.746 81.3286 368.026 80.4886 368.026 79.5686C368.026 78.8886 367.906 78.2486 367.666 77.6486L356.806 48.5486H365.866L372.886 69.7886H373.006L379.786 48.5486H388.606L375.646 83.4086Z" fill="#323232"/>
<path d="M195.86 67L185.136 49.5L179.099 55.4999L195.86 81.776L222.364 36.5L215.321 32L195.86 67Z" fill="#0F7377"/>
<rect x="13" y="56.8406" width="18" height="18" rx="6" transform="rotate(-45 13 56.8406)" fill="#0F7377"/>
<rect x="44.1127" y="87.9532" width="18" height="18" rx="6" transform="rotate(-45 44.1127 87.9532)" fill="#0F7377"/>
<rect x="75.2253" y="56.8406" width="18" height="18" rx="6" transform="rotate(-45 75.2253 56.8406)" fill="#0F7377"/>
<rect x="44.1127" y="25.7279" width="18" height="18" rx="6" transform="rotate(-45 44.1127 25.7279)" fill="#0F7377"/>
<rect x="45.5269" y="56.8406" width="16" height="16" rx="5" transform="rotate(-45 45.5269 56.8406)" stroke="#0F7377" stroke-width="2"/>
<path d="M55.0218 58.6991L52.8122 56.4895L52.6354 56.3127L52.4586 56.4895L51.6632 57.2849L51.4864 57.4617L51.6632 57.6385L54.845 60.8203L55.0218 60.9971L55.1986 60.8203L62.0167 54.0021L62.1935 53.8254L62.0167 53.6486L61.2213 52.8531L61.0445 52.6764L60.8677 52.8531L55.0218 58.6991Z" fill="#0F7377" stroke="#0F7377" stroke-width="0.5"/>
<rect x="2.82843" y="56.5686" width="76" height="76" rx="6" transform="rotate(-45 2.82843 56.5686)" stroke="#0F7377" stroke-width="4"/>
</svg>
