<svg width="397" height="115" viewBox="0 0 397 115" fill="none" xmlns="http://www.w3.org/2000/svg">
<path d="M132.496 36.8657H162.616V44.7857H141.916V54.6857H159.856V62.0057H141.916V79.7057H132.496V36.8657ZM175.922 43.8857H167.402V36.8657H175.922V43.8857ZM167.402 48.6857H175.922V79.7057H167.402V48.6857ZM236.91 60.8657C236.51 58.7057 235.79 57.0657 234.75 55.9457C233.75 54.8257 232.21 54.2657 230.13 54.2657C228.77 54.2657 227.63 54.5057 226.71 54.9857C225.83 55.4257 225.11 55.9857 224.55 56.6657C224.03 57.3457 223.65 58.0657 223.41 58.8257C223.21 59.5857 223.09 60.2657 223.05 60.8657H236.91ZM223.05 66.2657C223.17 69.0257 223.87 71.0257 225.15 72.2657C226.43 73.5057 228.27 74.1257 230.67 74.1257C232.39 74.1257 233.87 73.7057 235.11 72.8657C236.35 71.9857 237.11 71.0657 237.39 70.1057H244.89C243.69 73.8257 241.85 76.4857 239.37 78.0857C236.89 79.6857 233.89 80.4857 230.37 80.4857C227.93 80.4857 225.73 80.1057 223.77 79.3457C221.81 78.5457 220.15 77.4257 218.79 75.9857C217.43 74.5457 216.37 72.8257 215.61 70.8257C214.89 68.8257 214.53 66.6257 214.53 64.2257C214.53 61.9057 214.91 59.7457 215.67 57.7457C216.43 55.7457 217.51 54.0257 218.91 52.5857C220.31 51.1057 221.97 49.9457 223.89 49.1057C225.85 48.2657 228.01 47.8457 230.37 47.8457C233.01 47.8457 235.31 48.3657 237.27 49.4057C239.23 50.4057 240.83 51.7657 242.07 53.4857C243.35 55.2057 244.27 57.1657 244.83 59.3657C245.39 61.5657 245.59 63.8657 245.43 66.2657H223.05ZM260.803 71.7857H269.203C270.563 71.7857 271.883 71.5657 273.163 71.1257C274.443 70.6857 275.583 69.9657 276.583 68.9657C277.583 67.9257 278.383 66.5857 278.983 64.9457C279.583 63.3057 279.883 61.3057 279.883 58.9457C279.883 56.7857 279.663 54.8457 279.223 53.1257C278.823 51.3657 278.143 49.8657 277.183 48.6257C276.223 47.3857 274.943 46.4457 273.343 45.8057C271.783 45.1257 269.843 44.7857 267.523 44.7857H260.803V71.7857ZM251.383 36.8657H269.863C272.623 36.8657 275.183 37.3057 277.543 38.1857C279.943 39.0657 282.003 40.3857 283.723 42.1457C285.483 43.9057 286.843 46.1057 287.803 48.7457C288.803 51.3857 289.303 54.4857 289.303 58.0457C289.303 61.1657 288.903 64.0457 288.103 66.6857C287.303 69.3257 286.083 71.6057 284.443 73.5257C282.843 75.4457 280.823 76.9657 278.383 78.0857C275.983 79.1657 273.143 79.7057 269.863 79.7057H251.383V36.8657ZM294.595 58.2257C294.715 56.2257 295.215 54.5657 296.095 53.2457C296.975 51.9257 298.095 50.8657 299.455 50.0657C300.815 49.2657 302.335 48.7057 304.015 48.3857C305.735 48.0257 307.455 47.8457 309.175 47.8457C310.735 47.8457 312.315 47.9657 313.915 48.2057C315.515 48.4057 316.975 48.8257 318.295 49.4657C319.615 50.1057 320.695 51.0057 321.535 52.1657C322.375 53.2857 322.795 54.7857 322.795 56.6657V72.8057C322.795 74.2057 322.875 75.5457 323.035 76.8257C323.195 78.1057 323.475 79.0657 323.875 79.7057H315.235C315.075 79.2257 314.935 78.7457 314.815 78.2657C314.735 77.7457 314.675 77.2257 314.635 76.7057C313.275 78.1057 311.675 79.0857 309.835 79.6457C307.995 80.2057 306.115 80.4857 304.195 80.4857C302.715 80.4857 301.335 80.3057 300.055 79.9457C298.775 79.5857 297.655 79.0257 296.695 78.2657C295.735 77.5057 294.975 76.5457 294.415 75.3857C293.895 74.2257 293.635 72.8457 293.635 71.2457C293.635 69.4857 293.935 68.0457 294.535 66.9257C295.175 65.7657 295.975 64.8457 296.935 64.1657C297.935 63.4857 299.055 62.9857 300.295 62.6657C301.575 62.3057 302.855 62.0257 304.135 61.8257C305.415 61.6257 306.675 61.4657 307.915 61.3457C309.155 61.2257 310.255 61.0457 311.215 60.8057C312.175 60.5657 312.935 60.2257 313.495 59.7857C314.055 59.3057 314.315 58.6257 314.275 57.7457C314.275 56.8257 314.115 56.1057 313.795 55.5857C313.515 55.0257 313.115 54.6057 312.595 54.3257C312.115 54.0057 311.535 53.8057 310.855 53.7257C310.215 53.6057 309.515 53.5457 308.755 53.5457C307.075 53.5457 305.755 53.9057 304.795 54.6257C303.835 55.3457 303.275 56.5457 303.115 58.2257H294.595ZM314.275 64.5257C313.915 64.8457 313.455 65.1057 312.895 65.3057C312.375 65.4657 311.795 65.6057 311.155 65.7257C310.555 65.8457 309.915 65.9457 309.235 66.0257C308.555 66.1057 307.875 66.2057 307.195 66.3257C306.555 66.4457 305.915 66.6057 305.275 66.8057C304.675 67.0057 304.135 67.2857 303.655 67.6457C303.215 67.9657 302.855 68.3857 302.575 68.9057C302.295 69.4257 302.155 70.0857 302.155 70.8857C302.155 71.6457 302.295 72.2857 302.575 72.8057C302.855 73.3257 303.235 73.7457 303.715 74.0657C304.195 74.3457 304.755 74.5457 305.395 74.6657C306.035 74.7857 306.695 74.8457 307.375 74.8457C309.055 74.8457 310.355 74.5657 311.275 74.0057C312.195 73.4457 312.875 72.7857 313.315 72.0257C313.755 71.2257 314.015 70.4257 314.095 69.6257C314.215 68.8257 314.275 68.1857 314.275 67.7057V64.5257ZM338.169 43.8857H329.649V36.8657H338.169V43.8857ZM329.649 48.6857H338.169V79.7057H329.649V48.6857ZM345.117 36.8657H353.637V79.7057H345.117V36.8657ZM375.646 83.5457C374.726 86.0657 373.446 87.8657 371.806 88.9457C370.166 90.0257 367.886 90.5657 364.966 90.5657C364.086 90.5657 363.206 90.5257 362.326 90.4457C361.486 90.4057 360.626 90.3457 359.746 90.2657V83.2457C360.546 83.3257 361.366 83.4057 362.206 83.4857C363.046 83.5657 363.886 83.5857 364.726 83.5457C365.846 83.4257 366.666 82.9857 367.186 82.2257C367.746 81.4657 368.026 80.6257 368.026 79.7057C368.026 79.0257 367.906 78.3857 367.666 77.7857L356.806 48.6857H365.866L372.886 69.9257H373.006L379.786 48.6857H388.606L375.646 83.5457Z" fill="white"/>
<path d="M195.86 67.1371L185.136 49.6371L179.099 55.637L195.86 81.9131L222.364 36.6371L215.321 32.1371L195.86 67.1371Z" fill="#0F7377"/>
<rect x="13" y="56.9778" width="18" height="18" rx="6" transform="rotate(-45 13 56.9778)" fill="white"/>
<rect x="44.1127" y="88.0905" width="18" height="18" rx="6" transform="rotate(-45 44.1127 88.0905)" fill="white"/>
<rect x="75.2253" y="56.9778" width="18" height="18" rx="6" transform="rotate(-45 75.2253 56.9778)" fill="white"/>
<rect x="44.1127" y="25.8651" width="18" height="18" rx="6" transform="rotate(-45 44.1127 25.8651)" fill="white"/>
<rect x="45.5269" y="56.9778" width="16" height="16" rx="5" transform="rotate(-45 45.5269 56.9778)" stroke="white" stroke-width="2"/>
<path d="M55.0218 58.8363L52.8122 56.6267L52.6354 56.4499L52.4586 56.6267L51.6632 57.4222L51.4864 57.5989L51.6632 57.7757L54.845 60.9575L55.0218 61.1343L55.1986 60.9575L62.0167 54.1393L62.1935 53.9626L62.0167 53.7858L61.2213 52.9903L61.0445 52.8136L60.8677 52.9903L55.0218 58.8363Z" fill="white" stroke="white" stroke-width="0.5"/>
<rect x="2.82843" y="56.7056" width="76" height="76" rx="6" transform="rotate(-45 2.82843 56.7056)" stroke="white" stroke-width="4"/>
</svg>
